<svg xmlns="http://www.w3.org/2000/svg" xmlns:xlink="http://www.w3.org/1999/xlink" xmlns:lucid="lucid" width="955" height="427"><g transform="translate(-594 -235)" lucid:page-tab-id="0_0"><path d="M725.54 325c0-2.76 2.24-5 5-5h290c2.77 0 5 2.24 5 5v222c0 2.76-2.23 5-5 5h-290c-2.76 0-5-2.24-5-5z" fill="#fff"/><path d="M725.54 392h300v32h-300zM725.54 456h300v32h-300zM725.54 520h300v32h-300z" fill="#e6e6e6"/><path d="M725.54 320h300v40h-300z" fill="#ccc"/><path d="M725.54 325c0-2.76 2.24-5 5-5h290c2.77 0 5 2.24 5 5v222c0 2.76-2.23 5-5 5h-290c-2.76 0-5-2.24-5-5zM725.54 360h300M845.64 360v192" stroke="#666" fill="none"/><use xlink:href="#a" transform="matrix(1,0,0,1,735.5444743839482,320) translate(120.025 23.6)"/><use xlink:href="#b" transform="matrix(1,0,0,1,730.5444743839482,362.5) translate(0 17.1)"/><use xlink:href="#c" transform="matrix(1,0,0,1,850.6436430318356,362.5) translate(0 17.1)"/><use xlink:href="#d" transform="matrix(1,0,0,1,730.5444743839482,394.5) translate(0 17.1)"/><use xlink:href="#c" transform="matrix(1,0,0,1,850.6436430318356,394.5) translate(0 17.1)"/><use xlink:href="#e" transform="matrix(1,0,0,1,730.5444743839482,426.5) translate(0 17.1)"/><use xlink:href="#c" transform="matrix(1,0,0,1,850.6436430318356,426.5) translate(0 17.1)"/><use xlink:href="#f" transform="matrix(1,0,0,1,730.5444743839482,458.5) translate(0 17.1)"/><use xlink:href="#g" transform="matrix(1,0,0,1,850.6436430318356,458.5) translate(0 17.1)"/><use xlink:href="#h" transform="matrix(1,0,0,1,730.5444743839482,490.5) translate(0 17.1)"/><use xlink:href="#c" transform="matrix(1,0,0,1,850.6436430318356,490.5) translate(0 17.1)"/><use xlink:href="#i" transform="matrix(1,0,0,1,730.5444743839482,522.5) translate(0 17.1)"/><use xlink:href="#j" transform="matrix(1,0,0,1,850.6436430318356,522.5) translate(0 17.1)"/><use xlink:href="#k" transform="matrix(1,0,0,1,850.6436430318356,522.5) translate(47.9 17.1)"/><use xlink:href="#l" transform="matrix(1,0,0,1,850.6436430318356,522.5) translate(67.9 17.1)"/><path d="M1120 325c0-2.76 2.24-5 5-5h290c2.76 0 5 2.24 5 5v254c0 2.76-2.24 5-5 5h-290c-2.76 0-5-2.24-5-5z" fill="#fff"/><path d="M1120 392h300v32h-300zM1120 456h300v32h-300zM1120 520h300v32h-300z" fill="#e6e6e6"/><path d="M1120 320h300v40h-300z" fill="#ccc"/><path d="M1120 325c0-2.76 2.24-5 5-5h290c2.76 0 5 2.24 5 5v254c0 2.76-2.24 5-5 5h-290c-2.76 0-5-2.24-5-5zM1120 360h300M1241.1 360v224" stroke="#666" fill="none"/><use xlink:href="#m" transform="matrix(1,0,0,1,1130,320) translate(124.725 23.6)"/><use xlink:href="#n" transform="matrix(1,0,0,1,1125,362.5) translate(0 17.1)"/><use xlink:href="#c" transform="matrix(1,0,0,1,1246.1148836755701,362.5) translate(0 17.1)"/><use xlink:href="#o" transform="matrix(1,0,0,1,1125,394.5) translate(0 17.1)"/><use xlink:href="#c" transform="matrix(1,0,0,1,1246.1148836755701,394.5) translate(0 17.1)"/><use xlink:href="#p" transform="matrix(1,0,0,1,1125,426.5) translate(0 17.1)"/><use xlink:href="#q" transform="matrix(1,0,0,1,1246.1148836755701,426.5) translate(0 17.1)"/><use xlink:href="#r" transform="matrix(1,0,0,1,1125,458.5) translate(0 17.1)"/><use xlink:href="#s" transform="matrix(1,0,0,1,1246.1148836755701,458.5) translate(0 17.1)"/><use xlink:href="#t" transform="matrix(1,0,0,1,1125,490.5) translate(0 17.1)"/><use xlink:href="#u" transform="matrix(1,0,0,1,1125,490.5) translate(37 17.1)"/><use xlink:href="#c" transform="matrix(1,0,0,1,1246.1148836755701,490.5) translate(0 17.1)"/><use xlink:href="#v" transform="matrix(1,0,0,1,1125,522.5) translate(0 17.1)"/><use xlink:href="#u" transform="matrix(1,0,0,1,1125,522.5) translate(64.95 17.1)"/><use xlink:href="#c" transform="matrix(1,0,0,1,1246.1148836755701,522.5) translate(0 17.1)"/><use xlink:href="#w" transform="matrix(1,0,0,1,1125,554.5) translate(0 17.1)"/><use xlink:href="#x" transform="matrix(1,0,0,1,1246.1148836755701,554.5) translate(0 17.1)"/><path d="M1027.04 536.33h33.73c6.63 0 12-5.37 12-12V352c0-6.63 5.37-12 12-12h15.9" stroke="#666" stroke-width="2" fill="none"/><path d="M1027.07 537.33h-1.03v-2h1.03z" fill="#666"/><path d="M1119.05 350l-20-10 20-10M1119.05 340h-20" stroke="#666" stroke-width="2" fill="#fff"/><defs><path fill="#666" d="M238-95c0 69-44 99-111 99C63 4 22-25 22-93v-155h51v151c-1 38 19 59 55 60 90 1 49-130 58-211h52v153" id="y"/><path fill="#666" d="M137-138c1-29-70-34-71-4 15 46 118 7 119 86 1 83-164 76-172 9l43-7c4 19 20 25 44 25 33 8 57-30 24-41C81-84 22-81 20-136c-2-80 154-74 161-7" id="z"/><path fill="#666" d="M185-48c-13 30-37 53-82 52C43 2 14-33 14-96s30-98 90-98c62 0 83 45 84 108H66c0 31 8 55 39 56 18 0 30-7 34-22zm-45-69c5-46-57-63-70-21-2 6-4 13-4 21h74" id="A"/><path fill="#666" d="M135-150c-39-12-60 13-60 57V0H25l-1-190h47c2 13-1 29 3 40 6-28 27-53 61-41v41" id="B"/><g id="a"><use transform="matrix(0.05,0,0,0.05,0,0)" xlink:href="#y"/><use transform="matrix(0.05,0,0,0.05,12.950000000000001,0)" xlink:href="#z"/><use transform="matrix(0.05,0,0,0.05,22.950000000000003,0)" xlink:href="#A"/><use transform="matrix(0.05,0,0,0.05,32.95,0)" xlink:href="#B"/></g><path fill="#666" d="M190 0L58-211 59 0H30v-248h39L202-35l-2-213h31V0h-41" id="C"/><path fill="#666" d="M141-36C126-15 110 5 73 4 37 3 15-17 15-53c-1-64 63-63 125-63 3-35-9-54-41-54-24 1-41 7-42 31l-33-3c5-37 33-52 76-52 45 0 72 20 72 64v82c-1 20 7 32 28 27v20c-31 9-61-2-59-35zM48-53c0 20 12 33 32 33 41-3 63-29 60-74-43 2-92-5-92 41" id="D"/><path fill="#666" d="M210-169c-67 3-38 105-44 169h-31v-121c0-29-5-50-35-48C34-165 62-65 56 0H25l-1-190h30c1 10-1 24 2 32 10-44 99-50 107 0 11-21 27-35 58-36 85-2 47 119 55 194h-31v-121c0-29-5-49-35-48" id="E"/><path fill="#666" d="M100-194c63 0 86 42 84 106H49c0 40 14 67 53 68 26 1 43-12 49-29l28 8c-11 28-37 45-77 45C44 4 14-33 15-96c1-61 26-98 85-98zm52 81c6-60-76-77-97-28-3 7-6 17-6 28h103" id="F"/><g id="b"><use transform="matrix(0.05,0,0,0.05,0,0)" xlink:href="#C"/><use transform="matrix(0.05,0,0,0.05,12.950000000000001,0)" xlink:href="#D"/><use transform="matrix(0.05,0,0,0.05,22.950000000000003,0)" xlink:href="#E"/><use transform="matrix(0.05,0,0,0.05,37.900000000000006,0)" xlink:href="#F"/></g><path fill="#666" d="M185-189c-5-48-123-54-124 2 14 75 158 14 163 119 3 78-121 87-175 55-17-10-28-26-33-46l33-7c5 56 141 63 141-1 0-78-155-14-162-118-5-82 145-84 179-34 5 7 8 16 11 25" id="G"/><path fill="#666" d="M59-47c-2 24 18 29 38 22v24C64 9 27 4 27-40v-127H5v-23h24l9-43h21v43h35v23H59v120" id="H"/><path fill="#666" d="M114-163C36-179 61-72 57 0H25l-1-190h30c1 12-1 29 2 39 6-27 23-49 58-41v29" id="I"/><path fill="#666" d="M24-231v-30h32v30H24zM24 0v-190h32V0H24" id="J"/><path fill="#666" d="M117-194c89-4 53 116 60 194h-32v-121c0-31-8-49-39-48C34-167 62-67 57 0H25l-1-190h30c1 10-1 24 2 32 11-22 29-35 61-36" id="K"/><path fill="#666" d="M177-190C167-65 218 103 67 71c-23-6-38-20-44-43l32-5c15 47 100 32 89-28v-30C133-14 115 1 83 1 29 1 15-40 15-95c0-56 16-97 71-98 29-1 48 16 59 35 1-10 0-23 2-32h30zM94-22c36 0 50-32 50-73 0-42-14-75-50-75-39 0-46 34-46 75s6 73 46 73" id="L"/><g id="c"><use transform="matrix(0.05,0,0,0.05,0,0)" xlink:href="#G"/><use transform="matrix(0.05,0,0,0.05,12,0)" xlink:href="#H"/><use transform="matrix(0.05,0,0,0.05,17,0)" xlink:href="#I"/><use transform="matrix(0.05,0,0,0.05,22.95,0)" xlink:href="#J"/><use transform="matrix(0.05,0,0,0.05,26.899999999999995,0)" xlink:href="#K"/><use transform="matrix(0.05,0,0,0.05,36.9,0)" xlink:href="#L"/></g><path fill="#666" d="M30 0v-248h187v28H63v79h144v27H63v87h162V0H30" id="M"/><path fill="#666" d="M24 0v-261h32V0H24" id="N"/><g id="d"><use transform="matrix(0.05,0,0,0.05,0,0)" xlink:href="#M"/><use transform="matrix(0.05,0,0,0.05,12,0)" xlink:href="#E"/><use transform="matrix(0.05,0,0,0.05,26.950000000000003,0)" xlink:href="#D"/><use transform="matrix(0.05,0,0,0.05,36.95,0)" xlink:href="#J"/><use transform="matrix(0.05,0,0,0.05,40.900000000000006,0)" xlink:href="#N"/></g><path fill="#666" d="M30-248c87 1 191-15 191 75 0 78-77 80-158 76V0H30v-248zm33 125c57 0 124 11 124-50 0-59-68-47-124-48v98" id="O"/><path fill="#666" d="M106-169C34-169 62-67 57 0H25v-261h32l-1 103c12-21 28-36 61-36 89 0 53 116 60 194h-32v-121c2-32-8-49-39-48" id="P"/><path fill="#666" d="M100-194c62-1 85 37 85 99 1 63-27 99-86 99S16-35 15-95c0-66 28-99 85-99zM99-20c44 1 53-31 53-75 0-43-8-75-51-75s-53 32-53 75 10 74 51 75" id="Q"/><g id="e"><use transform="matrix(0.05,0,0,0.05,0,0)" xlink:href="#O"/><use transform="matrix(0.05,0,0,0.05,12,0)" xlink:href="#P"/><use transform="matrix(0.05,0,0,0.05,22,0)" xlink:href="#Q"/><use transform="matrix(0.05,0,0,0.05,32,0)" xlink:href="#K"/><use transform="matrix(0.05,0,0,0.05,42,0)" xlink:href="#F"/></g><path fill="#666" d="M209 0H11v-25l151-195H24v-28h176v25L50-27h159V0" id="R"/><path fill="#666" d="M115-194c55 1 70 41 70 98S169 2 115 4C84 4 66-9 55-30l1 105H24l-1-265h31l2 30c10-21 28-34 59-34zm-8 174c40 0 45-34 45-75s-6-73-45-74c-42 0-51 32-51 76 0 43 10 73 51 73" id="S"/><path fill="#666" d="M96-169c-40 0-48 33-48 73s9 75 48 75c24 0 41-14 43-38l32 2c-6 37-31 61-74 61-59 0-76-41-82-99-10-93 101-131 147-64 4 7 5 14 7 22l-32 3c-4-21-16-35-41-35" id="T"/><path fill="#666" d="M85-194c31 0 48 13 60 33l-1-100h32l1 261h-30c-2-10 0-23-3-31C134-8 116 4 85 4 32 4 16-35 15-94c0-66 23-100 70-100zm9 24c-40 0-46 34-46 75 0 40 6 74 45 74 42 0 51-32 51-76 0-42-9-74-50-73" id="U"/><g id="f"><use transform="matrix(0.05,0,0,0.05,0,0)" xlink:href="#R"/><use transform="matrix(0.05,0,0,0.05,10.950000000000001,0)" xlink:href="#J"/><use transform="matrix(0.05,0,0,0.05,14.9,0)" xlink:href="#S"/><use transform="matrix(0.05,0,0,0.05,24.900000000000002,0)" xlink:href="#T"/><use transform="matrix(0.05,0,0,0.05,33.900000000000006,0)" xlink:href="#Q"/><use transform="matrix(0.05,0,0,0.05,43.900000000000006,0)" xlink:href="#U"/><use transform="matrix(0.05,0,0,0.05,53.900000000000006,0)" xlink:href="#F"/></g><path fill="#666" d="M84 4C-5 8 30-112 23-190h32v120c0 31 7 50 39 49 72-2 45-101 50-169h31l1 190h-30c-1-10 1-25-2-33-11 22-28 36-60 37" id="V"/><path fill="#666" d="M115-194c53 0 69 39 70 98 0 66-23 100-70 100C84 3 66-7 56-30L54 0H23l1-261h32v101c10-23 28-34 59-34zm-8 174c40 0 45-34 45-75 0-40-5-75-45-74-42 0-51 32-51 76 0 43 10 73 51 73" id="W"/><g id="g"><use transform="matrix(0.05,0,0,0.05,0,0)" xlink:href="#C"/><use transform="matrix(0.05,0,0,0.05,12.950000000000001,0)" xlink:href="#V"/><use transform="matrix(0.05,0,0,0.05,22.950000000000003,0)" xlink:href="#E"/><use transform="matrix(0.05,0,0,0.05,37.900000000000006,0)" xlink:href="#W"/><use transform="matrix(0.05,0,0,0.05,47.900000000000006,0)" xlink:href="#F"/><use transform="matrix(0.05,0,0,0.05,57.900000000000006,0)" xlink:href="#I"/></g><path fill="#666" d="M135-143c-3-34-86-38-87 0 15 53 115 12 119 90S17 21 10-45l28-5c4 36 97 45 98 0-10-56-113-15-118-90-4-57 82-63 122-42 12 7 21 19 24 35" id="X"/><path fill="#666" d="M206 0h-36l-40-164L89 0H53L-1-190h32L70-26l43-164h34l41 164 42-164h31" id="Y"/><g id="h"><use transform="matrix(0.05,0,0,0.05,0,0)" xlink:href="#O"/><use transform="matrix(0.05,0,0,0.05,12,0)" xlink:href="#D"/><use transform="matrix(0.05,0,0,0.05,22,0)" xlink:href="#X"/><use transform="matrix(0.05,0,0,0.05,31,0)" xlink:href="#X"/><use transform="matrix(0.05,0,0,0.05,40,0)" xlink:href="#Y"/><use transform="matrix(0.05,0,0,0.05,52.95,0)" xlink:href="#Q"/><use transform="matrix(0.05,0,0,0.05,62.95,0)" xlink:href="#I"/><use transform="matrix(0.05,0,0,0.05,68.9,0)" xlink:href="#U"/></g><path fill="#666" d="M127-220V0H93v-220H8v-28h204v28h-85" id="Z"/><path fill="#666" d="M179-190L93 31C79 59 56 82 12 73V49c39 6 53-20 64-50L1-190h34L92-34l54-156h33" id="aa"/><g id="i"><use transform="matrix(0.05,0,0,0.05,0,0)" xlink:href="#Z"/><use transform="matrix(0.05,0,0,0.05,8.950000000000001,0)" xlink:href="#Q"/><use transform="matrix(0.05,0,0,0.05,18.950000000000003,0)" xlink:href="#aa"/><use transform="matrix(0.05,0,0,0.05,27.950000000000003,0)" xlink:href="#X"/></g><path fill="#666" d="M205 0l-28-72H64L36 0H1l101-248h38L239 0h-34zm-38-99l-47-123c-12 45-31 82-46 123h93" id="ab"/><g id="j"><use transform="matrix(0.05,0,0,0.05,0,0)" xlink:href="#ab"/><use transform="matrix(0.05,0,0,0.05,12,0)" xlink:href="#I"/><use transform="matrix(0.05,0,0,0.05,17.95,0)" xlink:href="#I"/><use transform="matrix(0.05,0,0,0.05,23.9,0)" xlink:href="#D"/><use transform="matrix(0.05,0,0,0.05,33.9,0)" xlink:href="#aa"/></g><path fill="#666" d="M101-234c-31-9-42 10-38 44h38v23H63V0H32v-167H5v-23h27c-7-52 17-82 69-68v24" id="ac"/><g id="k"><use transform="matrix(0.05,0,0,0.05,0,0)" xlink:href="#Q"/><use transform="matrix(0.05,0,0,0.05,10,0)" xlink:href="#ac"/></g><path fill="#666" d="M24-231v-30h32v30H24zM-9 49c24 4 33-6 33-30v-209h32V24c2 40-23 58-65 49V49" id="ad"/><g id="l"><use transform="matrix(0.05,0,0,0.05,0,0)" xlink:href="#Q"/><use transform="matrix(0.05,0,0,0.05,10,0)" xlink:href="#W"/><use transform="matrix(0.05,0,0,0.05,20,0)" xlink:href="#ad"/><use transform="matrix(0.05,0,0,0.05,23.95,0)" xlink:href="#F"/><use transform="matrix(0.05,0,0,0.05,33.95,0)" xlink:href="#T"/><use transform="matrix(0.05,0,0,0.05,42.95,0)" xlink:href="#H"/><use transform="matrix(0.05,0,0,0.05,47.95,0)" xlink:href="#X"/></g><path fill="#666" d="M136-208V0H84v-208H4v-40h212v40h-80" id="ae"/><path fill="#666" d="M110-194c64 0 96 36 96 99 0 64-35 99-97 99-61 0-95-36-95-99 0-62 34-99 96-99zm-1 164c35 0 45-28 45-65 0-40-10-65-43-65-34 0-45 26-45 65 0 36 10 65 43 65" id="af"/><path fill="#666" d="M123 10C108 53 80 86 19 72V37c35 8 53-11 59-39L3-190h52l48 148c12-52 28-100 44-148h51" id="ag"/><g id="m"><use transform="matrix(0.05,0,0,0.05,0,0)" xlink:href="#ae"/><use transform="matrix(0.05,0,0,0.05,9.600000000000001,0)" xlink:href="#af"/><use transform="matrix(0.05,0,0,0.05,20.550000000000004,0)" xlink:href="#ag"/></g><g id="n"><use transform="matrix(0.05,0,0,0.05,0,0)" xlink:href="#Z"/><use transform="matrix(0.05,0,0,0.05,10.3,0)" xlink:href="#J"/><use transform="matrix(0.05,0,0,0.05,14.25,0)" xlink:href="#H"/><use transform="matrix(0.05,0,0,0.05,19.25,0)" xlink:href="#N"/><use transform="matrix(0.05,0,0,0.05,23.2,0)" xlink:href="#F"/></g><path fill="#666" d="M30-248c118-7 216 8 213 122C240-48 200 0 122 0H30v-248zM63-27c89 8 146-16 146-99s-60-101-146-95v194" id="ah"/><g id="o"><use transform="matrix(0.05,0,0,0.05,0,0)" xlink:href="#ah"/><use transform="matrix(0.05,0,0,0.05,12.950000000000001,0)" xlink:href="#F"/><use transform="matrix(0.05,0,0,0.05,22.950000000000003,0)" xlink:href="#X"/><use transform="matrix(0.05,0,0,0.05,31.950000000000003,0)" xlink:href="#T"/><use transform="matrix(0.05,0,0,0.05,40.95,0)" xlink:href="#I"/><use transform="matrix(0.05,0,0,0.05,46.900000000000006,0)" xlink:href="#J"/><use transform="matrix(0.05,0,0,0.05,50.85000000000001,0)" xlink:href="#S"/><use transform="matrix(0.05,0,0,0.05,60.85,0)" xlink:href="#H"/><use transform="matrix(0.05,0,0,0.05,65.85000000000001,0)" xlink:href="#J"/><use transform="matrix(0.05,0,0,0.05,69.80000000000001,0)" xlink:href="#Q"/><use transform="matrix(0.05,0,0,0.05,79.80000000000001,0)" xlink:href="#K"/></g><path fill="#666" d="M33 0v-248h34V0H33" id="ai"/><g id="p"><use transform="matrix(0.05,0,0,0.05,0,0)" xlink:href="#ai"/><use transform="matrix(0.05,0,0,0.05,5,0)" xlink:href="#E"/><use transform="matrix(0.05,0,0,0.05,19.950000000000003,0)" xlink:href="#D"/><use transform="matrix(0.05,0,0,0.05,29.950000000000003,0)" xlink:href="#L"/><use transform="matrix(0.05,0,0,0.05,39.95,0)" xlink:href="#F"/><use transform="matrix(0.05,0,0,0.05,49.95,0)" xlink:href="#X"/></g><g id="q"><use transform="matrix(0.05,0,0,0.05,0,0)" xlink:href="#ab"/><use transform="matrix(0.05,0,0,0.05,12,0)" xlink:href="#I"/><use transform="matrix(0.05,0,0,0.05,17.95,0)" xlink:href="#I"/><use transform="matrix(0.05,0,0,0.05,23.9,0)" xlink:href="#D"/><use transform="matrix(0.05,0,0,0.05,33.9,0)" xlink:href="#aa"/></g><g id="r"><use transform="matrix(0.05,0,0,0.05,0,0)" xlink:href="#O"/><use transform="matrix(0.05,0,0,0.05,12,0)" xlink:href="#I"/><use transform="matrix(0.05,0,0,0.05,17.95,0)" xlink:href="#J"/><use transform="matrix(0.05,0,0,0.05,21.9,0)" xlink:href="#T"/><use transform="matrix(0.05,0,0,0.05,30.899999999999995,0)" xlink:href="#F"/></g><g id="s"><use transform="matrix(0.05,0,0,0.05,0,0)" xlink:href="#C"/><use transform="matrix(0.05,0,0,0.05,12.950000000000001,0)" xlink:href="#V"/><use transform="matrix(0.05,0,0,0.05,22.950000000000003,0)" xlink:href="#E"/><use transform="matrix(0.05,0,0,0.05,37.900000000000006,0)" xlink:href="#W"/><use transform="matrix(0.05,0,0,0.05,47.900000000000006,0)" xlink:href="#F"/><use transform="matrix(0.05,0,0,0.05,57.900000000000006,0)" xlink:href="#I"/></g><g id="t"><use transform="matrix(0.05,0,0,0.05,0,0)" xlink:href="#ab"/><use transform="matrix(0.05,0,0,0.05,12,0)" xlink:href="#L"/><use transform="matrix(0.05,0,0,0.05,22,0)" xlink:href="#F"/></g><g id="u"><use transform="matrix(0.05,0,0,0.05,0,0)" xlink:href="#H"/><use transform="matrix(0.05,0,0,0.05,5,0)" xlink:href="#D"/><use transform="matrix(0.05,0,0,0.05,15,0)" xlink:href="#L"/></g><path fill="#666" d="M143 4C61 4 22-44 18-125c-5-107 100-154 193-111 17 8 29 25 37 43l-32 9c-13-25-37-40-76-40-61 0-88 39-88 99 0 61 29 100 91 101 35 0 62-11 79-27v-45h-74v-28h105v86C228-13 192 4 143 4" id="aj"/><g id="v"><use transform="matrix(0.05,0,0,0.05,0,0)" xlink:href="#aj"/><use transform="matrix(0.05,0,0,0.05,14,0)" xlink:href="#F"/><use transform="matrix(0.05,0,0,0.05,24,0)" xlink:href="#K"/><use transform="matrix(0.05,0,0,0.05,34,0)" xlink:href="#U"/><use transform="matrix(0.05,0,0,0.05,44,0)" xlink:href="#F"/><use transform="matrix(0.05,0,0,0.05,54,0)" xlink:href="#I"/></g><g id="w"><use transform="matrix(0.05,0,0,0.05,0,0)" xlink:href="#Z"/><use transform="matrix(0.05,0,0,0.05,10.3,0)" xlink:href="#J"/><use transform="matrix(0.05,0,0,0.05,14.25,0)" xlink:href="#E"/><use transform="matrix(0.05,0,0,0.05,29.200000000000003,0)" xlink:href="#F"/><use transform="matrix(0.05,0,0,0.05,39.2,0)" xlink:href="#X"/><use transform="matrix(0.05,0,0,0.05,48.2,0)" xlink:href="#H"/><use transform="matrix(0.05,0,0,0.05,53.2,0)" xlink:href="#D"/><use transform="matrix(0.05,0,0,0.05,63.2,0)" xlink:href="#E"/><use transform="matrix(0.05,0,0,0.05,78.15,0)" xlink:href="#S"/></g><g id="x"><use transform="matrix(0.05,0,0,0.05,0,0)" xlink:href="#ah"/><use transform="matrix(0.05,0,0,0.05,12.950000000000001,0)" xlink:href="#D"/><use transform="matrix(0.05,0,0,0.05,22.950000000000003,0)" xlink:href="#H"/><use transform="matrix(0.05,0,0,0.05,27.950000000000003,0)" xlink:href="#F"/></g></defs></g></svg>