<svg xmlns="http://www.w3.org/2000/svg" xmlns:xlink="http://www.w3.org/1999/xlink" xmlns:lucid="lucid" width="1202" height="704"><g transform="translate(-290 -257)" lucid:page-tab-id="0_0"><path d="M725.54 305c0-2.76 2.24-5 5-5h290c2.77 0 5 2.24 5 5v254c0 2.76-2.23 5-5 5h-290c-2.76 0-5-2.24-5-5z" fill="#fff"/><path d="M725.54 372h300v32h-300zM725.54 436h300v32h-300zM725.54 500h300v32h-300z" fill="#e6e6e6"/><path d="M725.54 300h300v40h-300z" fill="#ccc"/><path d="M725.54 305c0-2.76 2.24-5 5-5h290c2.77 0 5 2.24 5 5v254c0 2.76-2.23 5-5 5h-290c-2.76 0-5-2.24-5-5zM725.54 340h300M845.64 340v224" stroke="#666" fill="none"/><use xlink:href="#a" transform="matrix(1,0,0,1,735.5444743839482,300) translate(120.025 23.6)"/><use xlink:href="#b" transform="matrix(1,0,0,1,730.5444743839482,342.5) translate(0 17.1)"/><use xlink:href="#c" transform="matrix(1,0,0,1,850.6436430318356,342.5) translate(0 17.1)"/><use xlink:href="#d" transform="matrix(1,0,0,1,730.5444743839482,374.5) translate(0 17.1)"/><use xlink:href="#c" transform="matrix(1,0,0,1,850.6436430318356,374.5) translate(0 17.1)"/><use xlink:href="#e" transform="matrix(1,0,0,1,730.5444743839482,406.5) translate(0 17.1)"/><use xlink:href="#c" transform="matrix(1,0,0,1,850.6436430318356,406.5) translate(0 17.1)"/><use xlink:href="#f" transform="matrix(1,0,0,1,730.5444743839482,438.5) translate(0 17.1)"/><use xlink:href="#g" transform="matrix(1,0,0,1,850.6436430318356,438.5) translate(0 17.1)"/><use xlink:href="#h" transform="matrix(1,0,0,1,850.6436430318356,438.5) translate(47.9 17.1)"/><use xlink:href="#i" transform="matrix(1,0,0,1,850.6436430318356,438.5) translate(67.9 17.1)"/><use xlink:href="#j" transform="matrix(1,0,0,1,730.5444743839482,470.5) translate(0 17.1)"/><use xlink:href="#c" transform="matrix(1,0,0,1,850.6436430318356,470.5) translate(0 17.1)"/><use xlink:href="#k" transform="matrix(1,0,0,1,730.5444743839482,502.5) translate(0 17.1)"/><use xlink:href="#g" transform="matrix(1,0,0,1,850.6436430318356,502.5) translate(0 17.1)"/><use xlink:href="#h" transform="matrix(1,0,0,1,850.6436430318356,502.5) translate(47.9 17.1)"/><use xlink:href="#i" transform="matrix(1,0,0,1,850.6436430318356,502.5) translate(67.9 17.1)"/><use xlink:href="#l" transform="matrix(1,0,0,1,730.5444743839482,534.5) translate(0 17.1)"/><use xlink:href="#g" transform="matrix(1,0,0,1,850.6436430318356,534.5) translate(0 17.1)"/><use xlink:href="#h" transform="matrix(1,0,0,1,850.6436430318356,534.5) translate(47.9 17.1)"/><use xlink:href="#i" transform="matrix(1,0,0,1,850.6436430318356,534.5) translate(67.9 17.1)"/><path d="M1141.1 625c0-2.76 2.23-5 5-5h290c2.75 0 5 2.24 5 5v286c0 2.76-2.25 5-5 5h-290c-2.77 0-5-2.24-5-5z" fill="#fff"/><path d="M1141.1 692h300v32h-300zM1141.1 756h300v32h-300zM1141.1 820h300v32h-300zM1141.1 884h300v32h-300z" fill="#e6e6e6"/><path d="M1141.1 620h300v40h-300z" fill="#ccc"/><path d="M1141.1 625c0-2.76 2.23-5 5-5h290c2.75 0 5 2.24 5 5v286c0 2.76-2.25 5-5 5h-290c-2.77 0-5-2.24-5-5zM1141.1 660h300M1262.2 660v256" stroke="#666" fill="none"/><use xlink:href="#m" transform="matrix(1,0,0,1,1151.0889487678965,620) translate(102.625 23.6)"/><use xlink:href="#n" transform="matrix(1,0,0,1,1146.0889487678965,662.5) translate(0 17.1)"/><use xlink:href="#c" transform="matrix(1,0,0,1,1267.2038324434666,662.5) translate(0 17.1)"/><use xlink:href="#o" transform="matrix(1,0,0,1,1146.0889487678965,694.5) translate(0 17.1)"/><use xlink:href="#p" transform="matrix(1,0,0,1,1146.0889487678965,694.5) translate(52.95 17.1)"/><use xlink:href="#q" transform="matrix(1,0,0,1,1267.2038324434666,694.5) translate(0 17.1)"/><use xlink:href="#r" transform="matrix(1,0,0,1,1146.0889487678965,726.5) translate(0 17.1)"/><use xlink:href="#c" transform="matrix(1,0,0,1,1267.2038324434666,726.5) translate(0 17.1)"/><use xlink:href="#s" transform="matrix(1,0,0,1,1146.0889487678965,758.5) translate(0 17.1)"/><use xlink:href="#c" transform="matrix(1,0,0,1,1267.2038324434666,758.5) translate(0 17.1)"/><use xlink:href="#t" transform="matrix(1,0,0,1,1146.0889487678965,790.5) translate(0 17.1)"/><use xlink:href="#q" transform="matrix(1,0,0,1,1267.2038324434666,790.5) translate(0 17.1)"/><use xlink:href="#u" transform="matrix(1,0,0,1,1146.0889487678965,822.5) translate(0 17.1)"/><use xlink:href="#c" transform="matrix(1,0,0,1,1267.2038324434666,822.5) translate(0 17.1)"/><use xlink:href="#v" transform="matrix(1,0,0,1,1146.0889487678965,854.5) translate(0 17.1)"/><use xlink:href="#c" transform="matrix(1,0,0,1,1267.2038324434666,854.5) translate(0 17.1)"/><use xlink:href="#w" transform="matrix(1,0,0,1,1146.0889487678965,886.5) translate(0 17.1)"/><use xlink:href="#c" transform="matrix(1,0,0,1,1267.2038324434666,886.5) translate(0 17.1)"/><path d="M1026.54 452h44.78c6.62 0 12 5.37 12 12v164c0 6.63 5.37 12 12 12h44.77" stroke="#666" fill="none"/><path d="M1026.56 452.5h-.52v-1h.52zM1140.6 640.5h-.52v-1h.5z" fill="#666"/><path d="M330 625c0-2.76 2.24-5 5-5h270c2.76 0 5 2.24 5 5v190c0 2.76-2.24 5-5 5H335c-2.76 0-5-2.24-5-5z" fill="#fff"/><path d="M330 692h280v32H330zM330 756h280v32H330z" fill="#e6e6e6"/><path d="M330 620h280v40H330z" fill="#ccc"/><path d="M330 625c0-2.76 2.24-5 5-5h270c2.76 0 5 2.24 5 5v190c0 2.76-2.24 5-5 5H335c-2.76 0-5-2.24-5-5zM330 660h280M439.25 660v160" stroke="#666" fill="none"/><use xlink:href="#x" transform="matrix(1,0,0,1,340,620) translate(107.57499999999999 23.6)"/><use xlink:href="#y" transform="matrix(1,0,0,1,335,662.5) translate(0 17.1)"/><use xlink:href="#z" transform="matrix(1,0,0,1,444.2471367837452,662.5) translate(0 17.1)"/><use xlink:href="#A" transform="matrix(1,0,0,1,335,694.5) translate(0 17.1)"/><use xlink:href="#B" transform="matrix(1,0,0,1,444.2471367837452,694.5) translate(0 17.1)"/><use xlink:href="#h" transform="matrix(1,0,0,1,444.2471367837452,694.5) translate(28.9 17.1)"/><use xlink:href="#C" transform="matrix(1,0,0,1,444.2471367837452,694.5) translate(48.9 17.1)"/><use xlink:href="#b" transform="matrix(1,0,0,1,335,726.5) translate(0 17.1)"/><use xlink:href="#c" transform="matrix(1,0,0,1,444.2471367837452,726.5) translate(0 17.1)"/><use xlink:href="#D" transform="matrix(1,0,0,1,335,758.5) translate(0 17.1)"/><use xlink:href="#c" transform="matrix(1,0,0,1,444.2471367837452,758.5) translate(0 17.1)"/><use xlink:href="#E" transform="matrix(1,0,0,1,335,790.5) translate(0 17.1)"/><use xlink:href="#c" transform="matrix(1,0,0,1,444.2471367837452,790.5) translate(0 17.1)"/><path d="M725.54 625c0-2.76 2.24-5 5-5h290c2.77 0 5 2.24 5 5v286c0 2.76-2.23 5-5 5h-290c-2.76 0-5-2.24-5-5z" fill="#fff"/><path d="M725.54 692h300v32h-300zM725.54 756h300v32h-300zM725.54 820h300v32h-300zM725.54 884h300v32h-300z" fill="#e6e6e6"/><path d="M725.54 620h300v40h-300z" fill="#ccc"/><path d="M725.54 625c0-2.76 2.24-5 5-5h290c2.77 0 5 2.24 5 5v286c0 2.76-2.23 5-5 5h-290c-2.76 0-5-2.24-5-5zM725.54 660h300M846.66 660v256" stroke="#666" fill="none"/><use xlink:href="#F" transform="matrix(1,0,0,1,735.5444743839482,620) translate(124.725 23.6)"/><use xlink:href="#G" transform="matrix(1,0,0,1,730.5444743839482,662.5) translate(0 17.1)"/><use xlink:href="#c" transform="matrix(1,0,0,1,851.6593580595184,662.5) translate(0 17.1)"/><use xlink:href="#E" transform="matrix(1,0,0,1,730.5444743839482,694.5) translate(0 17.1)"/><use xlink:href="#c" transform="matrix(1,0,0,1,851.6593580595184,694.5) translate(0 17.1)"/><use xlink:href="#A" transform="matrix(1,0,0,1,730.5444743839482,726.5) translate(0 17.1)"/><use xlink:href="#H" transform="matrix(1,0,0,1,851.6593580595184,726.5) translate(0 17.1)"/><use xlink:href="#I" transform="matrix(1,0,0,1,730.5444743839482,758.5) translate(0 17.1)"/><use xlink:href="#q" transform="matrix(1,0,0,1,851.6593580595184,758.5) translate(0 17.1)"/><use xlink:href="#J" transform="matrix(1,0,0,1,730.5444743839482,790.5) translate(0 17.1)"/><use xlink:href="#K" transform="matrix(1,0,0,1,730.5444743839482,790.5) translate(37 17.1)"/><use xlink:href="#c" transform="matrix(1,0,0,1,851.6593580595184,790.5) translate(0 17.1)"/><use xlink:href="#L" transform="matrix(1,0,0,1,730.5444743839482,822.5) translate(0 17.1)"/><use xlink:href="#K" transform="matrix(1,0,0,1,730.5444743839482,822.5) translate(64.95 17.1)"/><use xlink:href="#c" transform="matrix(1,0,0,1,851.6593580595184,822.5) translate(0 17.1)"/><use xlink:href="#M" transform="matrix(1,0,0,1,730.5444743839482,854.5) translate(0 17.1)"/><use xlink:href="#z" transform="matrix(1,0,0,1,851.6593580595184,854.5) translate(0 17.1)"/><use xlink:href="#N" transform="matrix(1,0,0,1,730.5444743839482,886.5) translate(0 17.1)"/><use xlink:href="#B" transform="matrix(1,0,0,1,851.6593580595184,886.5) translate(0 17.1)"/><use xlink:href="#h" transform="matrix(1,0,0,1,851.6593580595184,886.5) translate(28.9 17.1)"/><use xlink:href="#C" transform="matrix(1,0,0,1,851.6593580595184,886.5) translate(48.9 17.1)"/><path d="M724.04 548h-27c-6.62 0-12 5.37-12 12v68c0 6.63 5.38 12 12 12h9.18" stroke="#666" stroke-width="2" fill="none"/><path d="M725.04 549h-1.02v-2h1.02z" fill="#666"/><path d="M724.6 650l-20-10 20-10M724.6 640h-20" stroke="#666" stroke-width="2" fill="#fff"/><path d="M724.54 516H482c-6.63 0-12 5.37-12 12v72.1" stroke="#666" fill="none"/><path d="M725.04 516.5h-.5v-1h.5z" fill="#666"/><path d="M460 619.28l10-20 10 20M470 619.28v-20" stroke="#666" fill="#fff"/><path d="M611 640h113.54" stroke="#666" fill="none"/><path d="M611 640.5h-.5v-1h.5zM725.04 640.5h-.5v-1h.5z" fill="#666"/><path d="M1139.1 640h-94.82" stroke="#666" stroke-width="3" fill="none"/><path d="M1140.6 641.5h-1.55v-3h1.54z" fill="#666"/><path d="M1026.72 630l20 10-20 10M1026.72 640h20" stroke="#666" stroke-width="3" fill="#fff"/><defs><path fill="#666" d="M238-95c0 69-44 99-111 99C63 4 22-25 22-93v-155h51v151c-1 38 19 59 55 60 90 1 49-130 58-211h52v153" id="O"/><path fill="#666" d="M137-138c1-29-70-34-71-4 15 46 118 7 119 86 1 83-164 76-172 9l43-7c4 19 20 25 44 25 33 8 57-30 24-41C81-84 22-81 20-136c-2-80 154-74 161-7" id="P"/><path fill="#666" d="M185-48c-13 30-37 53-82 52C43 2 14-33 14-96s30-98 90-98c62 0 83 45 84 108H66c0 31 8 55 39 56 18 0 30-7 34-22zm-45-69c5-46-57-63-70-21-2 6-4 13-4 21h74" id="Q"/><path fill="#666" d="M135-150c-39-12-60 13-60 57V0H25l-1-190h47c2 13-1 29 3 40 6-28 27-53 61-41v41" id="R"/><g id="a"><use transform="matrix(0.05,0,0,0.05,0,0)" xlink:href="#O"/><use transform="matrix(0.05,0,0,0.05,12.950000000000001,0)" xlink:href="#P"/><use transform="matrix(0.05,0,0,0.05,22.950000000000003,0)" xlink:href="#Q"/><use transform="matrix(0.05,0,0,0.05,32.95,0)" xlink:href="#R"/></g><path fill="#666" d="M190 0L58-211 59 0H30v-248h39L202-35l-2-213h31V0h-41" id="S"/><path fill="#666" d="M141-36C126-15 110 5 73 4 37 3 15-17 15-53c-1-64 63-63 125-63 3-35-9-54-41-54-24 1-41 7-42 31l-33-3c5-37 33-52 76-52 45 0 72 20 72 64v82c-1 20 7 32 28 27v20c-31 9-61-2-59-35zM48-53c0 20 12 33 32 33 41-3 63-29 60-74-43 2-92-5-92 41" id="T"/><path fill="#666" d="M210-169c-67 3-38 105-44 169h-31v-121c0-29-5-50-35-48C34-165 62-65 56 0H25l-1-190h30c1 10-1 24 2 32 10-44 99-50 107 0 11-21 27-35 58-36 85-2 47 119 55 194h-31v-121c0-29-5-49-35-48" id="U"/><path fill="#666" d="M100-194c63 0 86 42 84 106H49c0 40 14 67 53 68 26 1 43-12 49-29l28 8c-11 28-37 45-77 45C44 4 14-33 15-96c1-61 26-98 85-98zm52 81c6-60-76-77-97-28-3 7-6 17-6 28h103" id="V"/><g id="b"><use transform="matrix(0.05,0,0,0.05,0,0)" xlink:href="#S"/><use transform="matrix(0.05,0,0,0.05,12.950000000000001,0)" xlink:href="#T"/><use transform="matrix(0.05,0,0,0.05,22.950000000000003,0)" xlink:href="#U"/><use transform="matrix(0.05,0,0,0.05,37.900000000000006,0)" xlink:href="#V"/></g><path fill="#666" d="M185-189c-5-48-123-54-124 2 14 75 158 14 163 119 3 78-121 87-175 55-17-10-28-26-33-46l33-7c5 56 141 63 141-1 0-78-155-14-162-118-5-82 145-84 179-34 5 7 8 16 11 25" id="W"/><path fill="#666" d="M59-47c-2 24 18 29 38 22v24C64 9 27 4 27-40v-127H5v-23h24l9-43h21v43h35v23H59v120" id="X"/><path fill="#666" d="M114-163C36-179 61-72 57 0H25l-1-190h30c1 12-1 29 2 39 6-27 23-49 58-41v29" id="Y"/><path fill="#666" d="M24-231v-30h32v30H24zM24 0v-190h32V0H24" id="Z"/><path fill="#666" d="M117-194c89-4 53 116 60 194h-32v-121c0-31-8-49-39-48C34-167 62-67 57 0H25l-1-190h30c1 10-1 24 2 32 11-22 29-35 61-36" id="aa"/><path fill="#666" d="M177-190C167-65 218 103 67 71c-23-6-38-20-44-43l32-5c15 47 100 32 89-28v-30C133-14 115 1 83 1 29 1 15-40 15-95c0-56 16-97 71-98 29-1 48 16 59 35 1-10 0-23 2-32h30zM94-22c36 0 50-32 50-73 0-42-14-75-50-75-39 0-46 34-46 75s6 73 46 73" id="ab"/><g id="c"><use transform="matrix(0.05,0,0,0.05,0,0)" xlink:href="#W"/><use transform="matrix(0.05,0,0,0.05,12,0)" xlink:href="#X"/><use transform="matrix(0.05,0,0,0.05,17,0)" xlink:href="#Y"/><use transform="matrix(0.05,0,0,0.05,22.95,0)" xlink:href="#Z"/><use transform="matrix(0.05,0,0,0.05,26.899999999999995,0)" xlink:href="#aa"/><use transform="matrix(0.05,0,0,0.05,36.9,0)" xlink:href="#ab"/></g><path fill="#666" d="M30 0v-248h187v28H63v79h144v27H63v87h162V0H30" id="ac"/><path fill="#666" d="M24 0v-261h32V0H24" id="ad"/><g id="d"><use transform="matrix(0.05,0,0,0.05,0,0)" xlink:href="#ac"/><use transform="matrix(0.05,0,0,0.05,12,0)" xlink:href="#U"/><use transform="matrix(0.05,0,0,0.05,26.950000000000003,0)" xlink:href="#T"/><use transform="matrix(0.05,0,0,0.05,36.95,0)" xlink:href="#Z"/><use transform="matrix(0.05,0,0,0.05,40.900000000000006,0)" xlink:href="#ad"/></g><path fill="#666" d="M30-248c87 1 191-15 191 75 0 78-77 80-158 76V0H30v-248zm33 125c57 0 124 11 124-50 0-59-68-47-124-48v98" id="ae"/><path fill="#666" d="M106-169C34-169 62-67 57 0H25v-261h32l-1 103c12-21 28-36 61-36 89 0 53 116 60 194h-32v-121c2-32-8-49-39-48" id="af"/><path fill="#666" d="M100-194c62-1 85 37 85 99 1 63-27 99-86 99S16-35 15-95c0-66 28-99 85-99zM99-20c44 1 53-31 53-75 0-43-8-75-51-75s-53 32-53 75 10 74 51 75" id="ag"/><g id="e"><use transform="matrix(0.05,0,0,0.05,0,0)" xlink:href="#ae"/><use transform="matrix(0.05,0,0,0.05,12,0)" xlink:href="#af"/><use transform="matrix(0.05,0,0,0.05,22,0)" xlink:href="#ag"/><use transform="matrix(0.05,0,0,0.05,32,0)" xlink:href="#aa"/><use transform="matrix(0.05,0,0,0.05,42,0)" xlink:href="#V"/></g><path fill="#666" d="M30 0v-248h33v221h125V0H30" id="ah"/><path fill="#666" d="M96-169c-40 0-48 33-48 73s9 75 48 75c24 0 41-14 43-38l32 2c-6 37-31 61-74 61-59 0-76-41-82-99-10-93 101-131 147-64 4 7 5 14 7 22l-32 3c-4-21-16-35-41-35" id="ai"/><g id="f"><use transform="matrix(0.05,0,0,0.05,0,0)" xlink:href="#ah"/><use transform="matrix(0.05,0,0,0.05,10,0)" xlink:href="#ag"/><use transform="matrix(0.05,0,0,0.05,20,0)" xlink:href="#ai"/><use transform="matrix(0.05,0,0,0.05,29,0)" xlink:href="#T"/><use transform="matrix(0.05,0,0,0.05,39,0)" xlink:href="#X"/><use transform="matrix(0.05,0,0,0.05,44,0)" xlink:href="#Z"/><use transform="matrix(0.05,0,0,0.05,47.95,0)" xlink:href="#ag"/><use transform="matrix(0.05,0,0,0.05,57.95,0)" xlink:href="#aa"/></g><path fill="#666" d="M205 0l-28-72H64L36 0H1l101-248h38L239 0h-34zm-38-99l-47-123c-12 45-31 82-46 123h93" id="aj"/><path fill="#666" d="M179-190L93 31C79 59 56 82 12 73V49c39 6 53-20 64-50L1-190h34L92-34l54-156h33" id="ak"/><g id="g"><use transform="matrix(0.05,0,0,0.05,0,0)" xlink:href="#aj"/><use transform="matrix(0.05,0,0,0.05,12,0)" xlink:href="#Y"/><use transform="matrix(0.05,0,0,0.05,17.95,0)" xlink:href="#Y"/><use transform="matrix(0.05,0,0,0.05,23.9,0)" xlink:href="#T"/><use transform="matrix(0.05,0,0,0.05,33.9,0)" xlink:href="#ak"/></g><path fill="#666" d="M101-234c-31-9-42 10-38 44h38v23H63V0H32v-167H5v-23h27c-7-52 17-82 69-68v24" id="al"/><g id="h"><use transform="matrix(0.05,0,0,0.05,0,0)" xlink:href="#ag"/><use transform="matrix(0.05,0,0,0.05,10,0)" xlink:href="#al"/></g><path fill="#666" d="M115-194c53 0 69 39 70 98 0 66-23 100-70 100C84 3 66-7 56-30L54 0H23l1-261h32v101c10-23 28-34 59-34zm-8 174c40 0 45-34 45-75 0-40-5-75-45-74-42 0-51 32-51 76 0 43 10 73 51 73" id="am"/><path fill="#666" d="M24-231v-30h32v30H24zM-9 49c24 4 33-6 33-30v-209h32V24c2 40-23 58-65 49V49" id="an"/><path fill="#666" d="M135-143c-3-34-86-38-87 0 15 53 115 12 119 90S17 21 10-45l28-5c4 36 97 45 98 0-10-56-113-15-118-90-4-57 82-63 122-42 12 7 21 19 24 35" id="ao"/><g id="i"><use transform="matrix(0.05,0,0,0.05,0,0)" xlink:href="#ag"/><use transform="matrix(0.05,0,0,0.05,10,0)" xlink:href="#am"/><use transform="matrix(0.05,0,0,0.05,20,0)" xlink:href="#an"/><use transform="matrix(0.05,0,0,0.05,23.95,0)" xlink:href="#V"/><use transform="matrix(0.05,0,0,0.05,33.95,0)" xlink:href="#ai"/><use transform="matrix(0.05,0,0,0.05,42.95,0)" xlink:href="#X"/><use transform="matrix(0.05,0,0,0.05,47.95,0)" xlink:href="#ao"/></g><path fill="#666" d="M206 0h-36l-40-164L89 0H53L-1-190h32L70-26l43-164h34l41 164 42-164h31" id="ap"/><path fill="#666" d="M85-194c31 0 48 13 60 33l-1-100h32l1 261h-30c-2-10 0-23-3-31C134-8 116 4 85 4 32 4 16-35 15-94c0-66 23-100 70-100zm9 24c-40 0-46 34-46 75 0 40 6 74 45 74 42 0 51-32 51-76 0-42-9-74-50-73" id="aq"/><g id="j"><use transform="matrix(0.05,0,0,0.05,0,0)" xlink:href="#ae"/><use transform="matrix(0.05,0,0,0.05,12,0)" xlink:href="#T"/><use transform="matrix(0.05,0,0,0.05,22,0)" xlink:href="#ao"/><use transform="matrix(0.05,0,0,0.05,31,0)" xlink:href="#ao"/><use transform="matrix(0.05,0,0,0.05,40,0)" xlink:href="#ap"/><use transform="matrix(0.05,0,0,0.05,52.95,0)" xlink:href="#ag"/><use transform="matrix(0.05,0,0,0.05,62.95,0)" xlink:href="#Y"/><use transform="matrix(0.05,0,0,0.05,68.9,0)" xlink:href="#aq"/></g><path fill="#666" d="M212-179c-10-28-35-45-73-45-59 0-87 40-87 99 0 60 29 101 89 101 43 0 62-24 78-52l27 14C228-24 195 4 139 4 59 4 22-46 18-125c-6-104 99-153 187-111 19 9 31 26 39 46" id="ar"/><g id="k"><use transform="matrix(0.05,0,0,0.05,0,0)" xlink:href="#ar"/><use transform="matrix(0.05,0,0,0.05,12.950000000000001,0)" xlink:href="#af"/><use transform="matrix(0.05,0,0,0.05,22.950000000000003,0)" xlink:href="#Z"/><use transform="matrix(0.05,0,0,0.05,26.900000000000002,0)" xlink:href="#ad"/><use transform="matrix(0.05,0,0,0.05,30.85,0)" xlink:href="#aq"/><use transform="matrix(0.05,0,0,0.05,40.85,0)" xlink:href="#Y"/><use transform="matrix(0.05,0,0,0.05,46.800000000000004,0)" xlink:href="#V"/><use transform="matrix(0.05,0,0,0.05,56.800000000000004,0)" xlink:href="#aa"/></g><path fill="#666" d="M127-220V0H93v-220H8v-28h204v28h-85" id="as"/><g id="l"><use transform="matrix(0.05,0,0,0.05,0,0)" xlink:href="#as"/><use transform="matrix(0.05,0,0,0.05,8.950000000000001,0)" xlink:href="#ag"/><use transform="matrix(0.05,0,0,0.05,18.950000000000003,0)" xlink:href="#ak"/><use transform="matrix(0.05,0,0,0.05,27.950000000000003,0)" xlink:href="#ao"/></g><path fill="#666" d="M24 0v-248h52v208h133V0H24" id="at"/><path fill="#666" d="M110-194c64 0 96 36 96 99 0 64-35 99-97 99-61 0-95-36-95-99 0-62 34-99 96-99zm-1 164c35 0 45-28 45-65 0-40-10-65-43-65-34 0-45 26-45 65 0 36 10 65 43 65" id="au"/><path fill="#666" d="M190-63c-7 42-38 67-86 67-59 0-84-38-90-98-12-110 154-137 174-36l-49 2c-2-19-15-32-35-32-30 0-35 28-38 64-6 74 65 87 74 30" id="av"/><path fill="#666" d="M133-34C117-15 103 5 69 4 32 3 11-16 11-54c-1-60 55-63 116-61 1-26-3-47-28-47-18 1-26 9-28 27l-52-2c7-38 36-58 82-57s74 22 75 68l1 82c-1 14 12 18 25 15v27c-30 8-71 5-69-32zm-48 3c29 0 43-24 42-57-32 0-66-3-65 30 0 17 8 27 23 27" id="aw"/><path fill="#666" d="M115-3C79 11 28 4 28-45v-112H4v-33h27l15-45h31v45h36v33H77v99c-1 23 16 31 38 25v30" id="ax"/><path fill="#666" d="M25-224v-37h50v37H25zM25 0v-190h50V0H25" id="ay"/><path fill="#666" d="M135-194c87-1 58 113 63 194h-50c-7-57 23-157-34-157-59 0-34 97-39 157H25l-1-190h47c2 12-1 28 3 38 12-26 28-41 61-42" id="az"/><g id="m"><use transform="matrix(0.05,0,0,0.05,0,0)" xlink:href="#at"/><use transform="matrix(0.05,0,0,0.05,10.950000000000001,0)" xlink:href="#au"/><use transform="matrix(0.05,0,0,0.05,21.900000000000002,0)" xlink:href="#av"/><use transform="matrix(0.05,0,0,0.05,31.900000000000002,0)" xlink:href="#aw"/><use transform="matrix(0.05,0,0,0.05,41.900000000000006,0)" xlink:href="#ax"/><use transform="matrix(0.05,0,0,0.05,47.85000000000001,0)" xlink:href="#ay"/><use transform="matrix(0.05,0,0,0.05,52.85,0)" xlink:href="#au"/><use transform="matrix(0.05,0,0,0.05,63.80000000000001,0)" xlink:href="#az"/></g><g id="n"><use transform="matrix(0.05,0,0,0.05,0,0)" xlink:href="#W"/><use transform="matrix(0.05,0,0,0.05,12,0)" xlink:href="#X"/><use transform="matrix(0.05,0,0,0.05,17,0)" xlink:href="#Y"/><use transform="matrix(0.05,0,0,0.05,22.95,0)" xlink:href="#V"/><use transform="matrix(0.05,0,0,0.05,32.95,0)" xlink:href="#V"/><use transform="matrix(0.05,0,0,0.05,42.95,0)" xlink:href="#X"/></g><g id="o"><use transform="matrix(0.05,0,0,0.05,0,0)" xlink:href="#W"/><use transform="matrix(0.05,0,0,0.05,12,0)" xlink:href="#X"/><use transform="matrix(0.05,0,0,0.05,17,0)" xlink:href="#Y"/><use transform="matrix(0.05,0,0,0.05,22.95,0)" xlink:href="#V"/><use transform="matrix(0.05,0,0,0.05,32.95,0)" xlink:href="#V"/><use transform="matrix(0.05,0,0,0.05,42.95,0)" xlink:href="#X"/></g><g id="p"><use transform="matrix(0.05,0,0,0.05,0,0)" xlink:href="#S"/><use transform="matrix(0.05,0,0,0.05,12.950000000000001,0)" xlink:href="#ag"/></g><path fill="#666" d="M84 4C-5 8 30-112 23-190h32v120c0 31 7 50 39 49 72-2 45-101 50-169h31l1 190h-30c-1-10 1-25-2-33-11 22-28 36-60 37" id="aA"/><g id="q"><use transform="matrix(0.05,0,0,0.05,0,0)" xlink:href="#S"/><use transform="matrix(0.05,0,0,0.05,12.950000000000001,0)" xlink:href="#aA"/><use transform="matrix(0.05,0,0,0.05,22.950000000000003,0)" xlink:href="#U"/><use transform="matrix(0.05,0,0,0.05,37.900000000000006,0)" xlink:href="#am"/><use transform="matrix(0.05,0,0,0.05,47.900000000000006,0)" xlink:href="#V"/><use transform="matrix(0.05,0,0,0.05,57.900000000000006,0)" xlink:href="#Y"/></g><g id="r"><use transform="matrix(0.05,0,0,0.05,0,0)" xlink:href="#ar"/><use transform="matrix(0.05,0,0,0.05,12.950000000000001,0)" xlink:href="#Z"/><use transform="matrix(0.05,0,0,0.05,16.900000000000002,0)" xlink:href="#X"/><use transform="matrix(0.05,0,0,0.05,21.900000000000002,0)" xlink:href="#ak"/></g><g id="s"><use transform="matrix(0.05,0,0,0.05,0,0)" xlink:href="#W"/><use transform="matrix(0.05,0,0,0.05,12,0)" xlink:href="#X"/><use transform="matrix(0.05,0,0,0.05,17,0)" xlink:href="#T"/><use transform="matrix(0.05,0,0,0.05,27,0)" xlink:href="#X"/><use transform="matrix(0.05,0,0,0.05,32,0)" xlink:href="#V"/></g><path fill="#666" d="M209 0H11v-25l151-195H24v-28h176v25L50-27h159V0" id="aB"/><path fill="#666" d="M33 0v-248h34V0H33" id="aC"/><g id="t"><use transform="matrix(0.05,0,0,0.05,0,0)" xlink:href="#aB"/><use transform="matrix(0.05,0,0,0.05,10.950000000000001,0)" xlink:href="#aC"/><use transform="matrix(0.05,0,0,0.05,15.950000000000001,0)" xlink:href="#ae"/></g><g id="u"><use transform="matrix(0.05,0,0,0.05,0,0)" xlink:href="#ar"/><use transform="matrix(0.05,0,0,0.05,12.950000000000001,0)" xlink:href="#ag"/><use transform="matrix(0.05,0,0,0.05,22.950000000000003,0)" xlink:href="#aA"/><use transform="matrix(0.05,0,0,0.05,32.95,0)" xlink:href="#aa"/><use transform="matrix(0.05,0,0,0.05,42.95,0)" xlink:href="#X"/><use transform="matrix(0.05,0,0,0.05,47.95,0)" xlink:href="#Y"/><use transform="matrix(0.05,0,0,0.05,53.900000000000006,0)" xlink:href="#ak"/></g><g id="v"><use transform="matrix(0.05,0,0,0.05,0,0)" xlink:href="#ah"/><use transform="matrix(0.05,0,0,0.05,10,0)" xlink:href="#ag"/><use transform="matrix(0.05,0,0,0.05,20,0)" xlink:href="#aa"/><use transform="matrix(0.05,0,0,0.05,30,0)" xlink:href="#ab"/></g><g id="w"><use transform="matrix(0.05,0,0,0.05,0,0)" xlink:href="#ah"/><use transform="matrix(0.05,0,0,0.05,10,0)" xlink:href="#T"/><use transform="matrix(0.05,0,0,0.05,20,0)" xlink:href="#X"/></g><path fill="#666" d="M67-125c0 53 21 87 73 88 37 1 54-22 65-47l45 17C233-25 199 4 140 4 58 4 20-42 15-125 8-235 124-281 211-232c18 10 29 29 36 50l-46 12c-8-25-30-41-62-41-52 0-71 34-72 86" id="aD"/><path fill="#666" d="M114-157C55-157 80-60 75 0H25v-261h50l-1 109c12-26 28-41 61-42 86-1 58 113 63 194h-50c-7-57 23-157-34-157" id="aE"/><path fill="#666" d="M25 0v-261h50V0H25" id="aF"/><path fill="#666" d="M88-194c31-1 46 15 58 34l-1-101h50l1 261h-48c-2-10 0-23-3-31C134-8 116 4 84 4 32 4 16-41 15-95c0-56 19-97 73-99zm17 164c33 0 40-30 41-66 1-37-9-64-41-64s-38 30-39 65c0 43 13 65 39 65" id="aG"/><g id="x"><use transform="matrix(0.05,0,0,0.05,0,0)" xlink:href="#aD"/><use transform="matrix(0.05,0,0,0.05,12.950000000000001,0)" xlink:href="#aE"/><use transform="matrix(0.05,0,0,0.05,23.900000000000002,0)" xlink:href="#ay"/><use transform="matrix(0.05,0,0,0.05,28.900000000000002,0)" xlink:href="#aF"/><use transform="matrix(0.05,0,0,0.05,33.900000000000006,0)" xlink:href="#aG"/></g><path fill="#666" d="M30-248c118-7 216 8 213 122C240-48 200 0 122 0H30v-248zM63-27c89 8 146-16 146-99s-60-101-146-95v194" id="aH"/><path fill="#666" d="M140-251c81 0 123 46 123 126C263-46 219 4 140 4 59 4 17-45 17-125s42-126 123-126zm0 227c63 0 89-41 89-101s-29-99-89-99c-61 0-89 39-89 99S79-25 140-24" id="aI"/><path fill="#666" d="M160-131c35 5 61 23 61 61C221 17 115-2 30 0v-248c76 3 177-17 177 60 0 33-19 50-47 57zm-97-11c50-1 110 9 110-42 0-47-63-36-110-37v79zm0 115c55-2 124 14 124-45 0-56-70-42-124-44v89" id="aJ"/><g id="y"><use transform="matrix(0.05,0,0,0.05,0,0)" xlink:href="#aH"/><use transform="matrix(0.05,0,0,0.05,12.950000000000001,0)" xlink:href="#aI"/><use transform="matrix(0.05,0,0,0.05,26.950000000000003,0)" xlink:href="#aJ"/></g><g id="z"><use transform="matrix(0.05,0,0,0.05,0,0)" xlink:href="#aH"/><use transform="matrix(0.05,0,0,0.05,12.950000000000001,0)" xlink:href="#T"/><use transform="matrix(0.05,0,0,0.05,22.950000000000003,0)" xlink:href="#X"/><use transform="matrix(0.05,0,0,0.05,27.950000000000003,0)" xlink:href="#V"/></g><g id="A"><use transform="matrix(0.05,0,0,0.05,0,0)" xlink:href="#aC"/><use transform="matrix(0.05,0,0,0.05,5,0)" xlink:href="#U"/><use transform="matrix(0.05,0,0,0.05,19.950000000000003,0)" xlink:href="#T"/><use transform="matrix(0.05,0,0,0.05,29.950000000000003,0)" xlink:href="#ab"/><use transform="matrix(0.05,0,0,0.05,39.95,0)" xlink:href="#V"/><use transform="matrix(0.05,0,0,0.05,49.95,0)" xlink:href="#ao"/></g><g id="B"><use transform="matrix(0.05,0,0,0.05,0,0)" xlink:href="#aj"/><use transform="matrix(0.05,0,0,0.05,12,0)" xlink:href="#Y"/><use transform="matrix(0.05,0,0,0.05,17.95,0)" xlink:href="#Y"/></g><g id="C"><use transform="matrix(0.05,0,0,0.05,0,0)" xlink:href="#ao"/><use transform="matrix(0.05,0,0,0.05,9,0)" xlink:href="#X"/><use transform="matrix(0.05,0,0,0.05,14,0)" xlink:href="#Y"/><use transform="matrix(0.05,0,0,0.05,19.95,0)" xlink:href="#Z"/><use transform="matrix(0.05,0,0,0.05,23.9,0)" xlink:href="#aa"/><use transform="matrix(0.05,0,0,0.05,33.9,0)" xlink:href="#ab"/><use transform="matrix(0.05,0,0,0.05,43.9,0)" xlink:href="#ao"/></g><path fill="#666" d="M143 4C61 4 22-44 18-125c-5-107 100-154 193-111 17 8 29 25 37 43l-32 9c-13-25-37-40-76-40-61 0-88 39-88 99 0 61 29 100 91 101 35 0 62-11 79-27v-45h-74v-28h105v86C228-13 192 4 143 4" id="aK"/><g id="D"><use transform="matrix(0.05,0,0,0.05,0,0)" xlink:href="#aK"/><use transform="matrix(0.05,0,0,0.05,14,0)" xlink:href="#V"/><use transform="matrix(0.05,0,0,0.05,24,0)" xlink:href="#aa"/><use transform="matrix(0.05,0,0,0.05,34,0)" xlink:href="#aq"/><use transform="matrix(0.05,0,0,0.05,44,0)" xlink:href="#V"/><use transform="matrix(0.05,0,0,0.05,54,0)" xlink:href="#Y"/></g><path fill="#666" d="M115-194c55 1 70 41 70 98S169 2 115 4C84 4 66-9 55-30l1 105H24l-1-265h31l2 30c10-21 28-34 59-34zm-8 174c40 0 45-34 45-75s-6-73-45-74c-42 0-51 32-51 76 0 43 10 73 51 73" id="aL"/><g id="E"><use transform="matrix(0.05,0,0,0.05,0,0)" xlink:href="#aH"/><use transform="matrix(0.05,0,0,0.05,12.950000000000001,0)" xlink:href="#V"/><use transform="matrix(0.05,0,0,0.05,22.950000000000003,0)" xlink:href="#ao"/><use transform="matrix(0.05,0,0,0.05,31.950000000000003,0)" xlink:href="#ai"/><use transform="matrix(0.05,0,0,0.05,40.95,0)" xlink:href="#Y"/><use transform="matrix(0.05,0,0,0.05,46.900000000000006,0)" xlink:href="#Z"/><use transform="matrix(0.05,0,0,0.05,50.85000000000001,0)" xlink:href="#aL"/><use transform="matrix(0.05,0,0,0.05,60.85,0)" xlink:href="#X"/><use transform="matrix(0.05,0,0,0.05,65.85000000000001,0)" xlink:href="#Z"/><use transform="matrix(0.05,0,0,0.05,69.80000000000001,0)" xlink:href="#ag"/><use transform="matrix(0.05,0,0,0.05,79.80000000000001,0)" xlink:href="#aa"/></g><path fill="#666" d="M136-208V0H84v-208H4v-40h212v40h-80" id="aM"/><path fill="#666" d="M123 10C108 53 80 86 19 72V37c35 8 53-11 59-39L3-190h52l48 148c12-52 28-100 44-148h51" id="aN"/><g id="F"><use transform="matrix(0.05,0,0,0.05,0,0)" xlink:href="#aM"/><use transform="matrix(0.05,0,0,0.05,9.600000000000001,0)" xlink:href="#au"/><use transform="matrix(0.05,0,0,0.05,20.550000000000004,0)" xlink:href="#aN"/></g><g id="G"><use transform="matrix(0.05,0,0,0.05,0,0)" xlink:href="#as"/><use transform="matrix(0.05,0,0,0.05,10.3,0)" xlink:href="#Z"/><use transform="matrix(0.05,0,0,0.05,14.25,0)" xlink:href="#X"/><use transform="matrix(0.05,0,0,0.05,19.25,0)" xlink:href="#ad"/><use transform="matrix(0.05,0,0,0.05,23.2,0)" xlink:href="#V"/></g><g id="H"><use transform="matrix(0.05,0,0,0.05,0,0)" xlink:href="#aI"/><use transform="matrix(0.05,0,0,0.05,14,0)" xlink:href="#am"/><use transform="matrix(0.05,0,0,0.05,24,0)" xlink:href="#an"/><use transform="matrix(0.05,0,0,0.05,27.950000000000003,0)" xlink:href="#V"/><use transform="matrix(0.05,0,0,0.05,37.95,0)" xlink:href="#ai"/><use transform="matrix(0.05,0,0,0.05,46.95,0)" xlink:href="#X"/></g><g id="I"><use transform="matrix(0.05,0,0,0.05,0,0)" xlink:href="#ae"/><use transform="matrix(0.05,0,0,0.05,12,0)" xlink:href="#Y"/><use transform="matrix(0.05,0,0,0.05,17.95,0)" xlink:href="#Z"/><use transform="matrix(0.05,0,0,0.05,21.9,0)" xlink:href="#ai"/><use transform="matrix(0.05,0,0,0.05,30.899999999999995,0)" xlink:href="#V"/></g><g id="J"><use transform="matrix(0.05,0,0,0.05,0,0)" xlink:href="#aj"/><use transform="matrix(0.05,0,0,0.05,12,0)" xlink:href="#ab"/><use transform="matrix(0.05,0,0,0.05,22,0)" xlink:href="#V"/></g><g id="K"><use transform="matrix(0.05,0,0,0.05,0,0)" xlink:href="#X"/><use transform="matrix(0.05,0,0,0.05,5,0)" xlink:href="#T"/><use transform="matrix(0.05,0,0,0.05,15,0)" xlink:href="#ab"/></g><g id="L"><use transform="matrix(0.05,0,0,0.05,0,0)" xlink:href="#aK"/><use transform="matrix(0.05,0,0,0.05,14,0)" xlink:href="#V"/><use transform="matrix(0.05,0,0,0.05,24,0)" xlink:href="#aa"/><use transform="matrix(0.05,0,0,0.05,34,0)" xlink:href="#aq"/><use transform="matrix(0.05,0,0,0.05,44,0)" xlink:href="#V"/><use transform="matrix(0.05,0,0,0.05,54,0)" xlink:href="#Y"/></g><g id="M"><use transform="matrix(0.05,0,0,0.05,0,0)" xlink:href="#as"/><use transform="matrix(0.05,0,0,0.05,10.3,0)" xlink:href="#Z"/><use transform="matrix(0.05,0,0,0.05,14.25,0)" xlink:href="#U"/><use transform="matrix(0.05,0,0,0.05,29.200000000000003,0)" xlink:href="#V"/><use transform="matrix(0.05,0,0,0.05,39.2,0)" xlink:href="#ao"/><use transform="matrix(0.05,0,0,0.05,48.2,0)" xlink:href="#X"/><use transform="matrix(0.05,0,0,0.05,53.2,0)" xlink:href="#T"/><use transform="matrix(0.05,0,0,0.05,63.2,0)" xlink:href="#U"/><use transform="matrix(0.05,0,0,0.05,78.15,0)" xlink:href="#aL"/></g><g id="N"><use transform="matrix(0.05,0,0,0.05,0,0)" xlink:href="#ar"/><use transform="matrix(0.05,0,0,0.05,12.950000000000001,0)" xlink:href="#T"/><use transform="matrix(0.05,0,0,0.05,22.950000000000003,0)" xlink:href="#X"/><use transform="matrix(0.05,0,0,0.05,27.950000000000003,0)" xlink:href="#V"/><use transform="matrix(0.05,0,0,0.05,37.95,0)" xlink:href="#ab"/><use transform="matrix(0.05,0,0,0.05,47.95,0)" xlink:href="#ag"/><use transform="matrix(0.05,0,0,0.05,57.95,0)" xlink:href="#Y"/><use transform="matrix(0.05,0,0,0.05,63.900000000000006,0)" xlink:href="#ak"/></g></defs></g></svg>
